<!--?xml version="1.0" standalone="no"?-->
              <svg id="sw-js-blob-svg" viewBox="0 0 100 100" xmlns="http://www.w3.org/2000/svg" version="1.1">
                    <defs> 
                        <linearGradient id="sw-gradient" x1="0" x2="1" y1="1" y2="0">
                            <stop id="stop1" stop-color="rgba(0, 52.008, 255, 1)" offset="0%"></stop>
                            <stop id="stop2" stop-color="rgba(0, 36.855, 135.647, 1)" offset="100%"></stop>
                        </linearGradient>
                    </defs>
                <path fill="url(#sw-gradient)" d="M19.4,-24.8C26.1,-22,32.9,-17.4,35.2,-11.2C37.5,-5,35.3,2.8,31.2,8.6C27.2,14.3,21.3,17.8,15.8,22.2C10.3,26.6,5.2,31.8,-0.5,32.5C-6.2,33.2,-12.4,29.4,-18.6,25.2C-24.7,21.1,-30.8,16.5,-33.6,10.4C-36.3,4.2,-35.7,-3.6,-32.5,-9.7C-29.3,-15.8,-23.6,-20.1,-17.7,-23.3C-11.9,-26.4,-5.9,-28.4,0.2,-28.7C6.4,-29,12.8,-27.7,19.4,-24.8Z" width="100%" height="100%" transform="translate(50 50)" stroke-width="0" style="transition: all 0.3s ease 0s;" stroke="url(#sw-gradient)"></path>
              </svg>