<!--?xml version="1.0" standalone="no"?-->
              <svg id="sw-js-blob-svg" viewBox="0 0 100 100" xmlns="http://www.w3.org/2000/svg" version="1.1">
                    <defs> 
                        <linearGradient id="sw-gradient" x1="0" x2="1" y1="1" y2="0">
                            <stop id="stop1" stop-color="rgba(255, 251.041, 0, 1)" offset="0%"></stop>
                            <stop id="stop2" stop-color="rgba(241.683, 255, 0, 1)" offset="100%"></stop>
                        </linearGradient>
                    </defs>
                <path fill="url(#sw-gradient)" d="M22.1,-35.2C28.5,-30.3,33.3,-23.9,36.4,-16.8C39.4,-9.6,40.6,-1.8,40.3,6.3C40,14.5,38.1,22.9,33.1,28.7C28.1,34.6,20.1,37.9,12,39.8C3.8,41.8,-4.4,42.5,-12.2,40.6C-20,38.8,-27.2,34.3,-31.9,28.1C-36.7,21.9,-38.8,13.9,-40.3,5.6C-41.9,-2.7,-42.8,-11.3,-39.5,-17.9C-36.2,-24.4,-28.8,-28.8,-21.5,-33.2C-14.2,-37.6,-7.1,-42,0.4,-42.6C7.9,-43.2,15.8,-40,22.1,-35.2Z" width="100%" height="100%" transform="translate(50 50)" stroke-width="0" style="transition: all 0.3s ease 0s;" stroke="url(#sw-gradient)"></path>
              </svg>