<!--?xml version="1.0" standalone="no"?-->
              <svg id="sw-js-blob-svg" viewBox="0 0 100 100" xmlns="http://www.w3.org/2000/svg" version="1.1">
                    <defs> 
                        <linearGradient id="sw-gradient" x1="0" x2="1" y1="1" y2="0">
                            <stop id="stop1" stop-color="rgba(255, 251.041, 0, 1)" offset="0%"></stop>
                            <stop id="stop2" stop-color="rgba(241.683, 255, 0, 1)" offset="100%"></stop>
                        </linearGradient>
                    </defs>
                <path fill="url(#sw-gradient)" d="M20.3,-32.2C26.7,-27.5,32.6,-22.5,36.9,-16C41.2,-9.5,44,-1.4,42.4,5.7C40.8,12.8,34.8,18.9,29,24.4C23.1,30,17.4,34.9,10.7,37.3C4,39.7,-3.8,39.4,-11.7,38C-19.7,36.6,-27.9,33.9,-33.3,28.4C-38.8,23,-41.5,14.7,-42.2,6.4C-42.9,-1.9,-41.6,-10.2,-38.5,-17.9C-35.4,-25.6,-30.5,-32.7,-23.8,-37.2C-17.1,-41.8,-8.5,-43.7,-0.8,-42.5C7,-41.3,13.9,-36.9,20.3,-32.2Z" width="100%" height="100%" transform="translate(50 50)" stroke-width="0" style="transition: all 0.3s ease 0s;" stroke="url(#sw-gradient)"></path>
              </svg>